<svg xmlns="http://www.w3.org/2000/svg" viewBox="0 0 64 80" x="0px" y="0px"><path d="M59,50H5a3,3,0,0,0,0,6H59a3,3,0,0,0,0-6Z"/><path d="M5.52,58.71A5.03078,5.03078,0,0,0,10.47,63H53.53a5.03078,5.03078,0,0,0,4.95-4.29l.1-.71H5.42Z"/><path d="M28.14,48H58a1.003,1.003,0,0,0,1-1V44a8.99435,8.99435,0,0,0-5.27-8.18l-1.62.17a7.011,7.011,0,0,0-6.61,6.99,1,1,0,0,1-2,0A8.996,8.996,0,0,1,48.36,35H42.55A7.00589,7.00589,0,0,0,36,41.98a1,1,0,0,1-2,0A9.00042,9.00042,0,0,1,37.33,35H36a8.9083,8.9083,0,0,0-4.5,1.21V41A8.96015,8.96015,0,0,1,28.14,48Z"/><path d="M6.5,42H9.5799A7.005,7.005,0,0,0,16.5,48h6a7.00818,7.00818,0,0,0,7-7V30a3.00328,3.00328,0,0,0-3-3h-14a3.00328,3.00328,0,0,0-3,3h-3a4.00427,4.00427,0,0,0-4,4v4A4.00427,4.00427,0,0,0,6.5,42Zm-2-8a2.00229,2.00229,0,0,1,2-2h3v8h-3a2.00229,2.00229,0,0,1-2-2Z"/><path d="M9,21h6a2.50263,2.50263,0,0,1,2.5,2.5V24a1,1,0,0,0,2,0v-.5A4.50491,4.50491,0,0,0,15,19H9a2.5,2.5,0,0,1,0-5H26.5a4.5,4.5,0,0,0,0-9H20a2.50263,2.50263,0,0,1-2.5-2.5V2a1,1,0,0,0-2,0v.5A4.50491,4.50491,0,0,0,20,7h6.5a2.5,2.5,0,0,1,0,5H9a4.5,4.5,0,0,0,0,9Z"/><path d="M25,25a.99974.99974,0,0,0,1-1V23a5.00588,5.00588,0,0,0-5-5,1,1,0,0,0,0,2,3.00328,3.00328,0,0,1,3,3v1A.99974.99974,0,0,0,25,25Z"/><path d="M12,9a1,1,0,0,0,0-2,2.00229,2.00229,0,0,1-2-2V2A1,1,0,0,0,8,2V5A4.00427,4.00427,0,0,0,12,9Z"/></svg>