<svg xmlns="http://www.w3.org/2000/svg" xmlns:xlink="http://www.w3.org/1999/xlink" version="1.1" x="0px" y="0px" viewBox="0 0 100 125" style="enable-background:new 0 0 100 100;" xml:space="preserve"><g><g><path d="M49.6,89.4c-13.4,0-27.4-7.6-28.4-24.4c-0.8-13.6,8.1-32.3,16.6-40.6c0.3-0.3,0.8-0.4,1.2-0.1c0.4,0.2,0.6,0.7,0.4,1.2    c0,0.1-2.2,6.9,1.3,11.7C41.1,25,52.1,13.2,60,11.4c0.4-0.1,0.7,0,1,0.3c0.2,0.3,0.3,0.7,0.2,1c-2.7,7.7-1,15.3,5.3,23.1l0.5,0.6    c4.6,5.8,13.1,16.5,12,29.4C77.6,81.3,63.1,89.4,49.6,89.4z M36.8,28.4C30.1,36.4,22.4,52,23.2,64.8c1,16.7,14.8,22.6,26.4,22.6    c12.7,0,26.1-7.5,27.3-21.8c1-12.1-7.2-22.4-11.6-28L64.8,37c-6.2-7.8-8.2-15.4-6.2-23.2c-7.5,3.1-17,14.8-15.9,25.8    c0,0.4-0.2,0.8-0.5,1c-0.4,0.2-0.8,0.1-1.1-0.1C36.8,37,36.5,31.8,36.8,28.4z"/></g></g></svg>