<svg fill="current" stroke="current" xmlns="http://www.w3.org/2000/svg" xmlns:xlink="http://www.w3.org/1999/xlink" version="1.1" viewBox="-105 347 100 100"  xml:space="preserve"><path d="M-63.3,413.5l39.8-17.9v-10L-62,401.6v-2.5l38.5-16v-9l-38.4,14c0,0-11.9-4.1-25.2-16.8v26.1  C-84.8,403.6-73.9,411.1-63.3,413.5z"/><path d="M-24.8,372.5l-61.6-3.2c1.2,1,10.6,10.9,23.9,16.6L-24.8,372.5z"/><path d="M-21.1,386.6v3c6.8,3.5,10.9,7.9,10.9,12.8c0,10.6-20.5,19.7-44.9,19.7s-44.9-9-44.9-19.7c0-4.7,4-9,10.4-12.5v-3  c-8.1,4-13,9.4-13,15.5c0,12.5,20.9,22.3,47.5,22.3s47.5-9.8,47.5-22.3C-7.5,396.2-12.7,390.6-21.1,386.6z"/></svg>