<svg xmlns="http://www.w3.org/2000/svg" xmlns:xlink="http://www.w3.org/1999/xlink" version="1.1" x="0px" y="0px" viewBox="0 0 32 40" style="enable-background:new 0 0 32 32;" xml:space="preserve"><path d="M3.37,22.27997V24.19c0,0.56,0.44,1,1,1H27.63c0.56,0,1-0.44,1-1v-1.91003c0-6.62-5.13-12.06-11.63-12.57996V9.09998  c1.09003-0.39996,1.88-1.45001,1.88-2.67999c0-1.59003-1.28998-2.88-2.88-2.88c-1.58997,0-2.88,1.28998-2.88,2.88  c0,1.22998,0.79004,2.28003,1.88,2.67999v0.60004C8.5,10.21997,3.37,15.65997,3.37,22.27997z M16,5.53998  c0.48004,0,0.88,0.40002,0.88,0.88s-0.39996,0.87-0.88,0.87c-0.47998,0-0.88-0.39001-0.88-0.87S15.52002,5.53998,16,5.53998z"/><path d="M30,26.45557H2c-0.55225,0-1,0.44775-1,1s0.44775,1,1,1h28c0.55225,0,1-0.44775,1-1S30.55225,26.45557,30,26.45557z"/></svg>