<svg xmlns="http://www.w3.org/2000/svg" xmlns:xlink="http://www.w3.org/1999/xlink" version="1.1" x="0px" y="0px" viewBox="0 0 60 75" style="enable-background:new 0 0 60 60;" xml:space="preserve"><path d="M9.2600098,22.3549194c-0.1900024,0.210022-0.2800293,0.4900513-0.25,0.7800293l2.8099976,26.210022  c0.1599731,1.5299683,1.4400024,2.6799927,2.9799805,2.6799927h30.4000244c1.539978,0,2.8200073-1.1500244,2.9799805-2.6799927  l2.8099976-26.210022c0.0300293-0.289978-0.0599976-0.5700073-0.25-0.7800293  C50.5499878,22.1449585,50.2800293,22.0249634,50,22.0249634h-5.7299805c-0.4200439,0-0.7900391,0.2600098-0.9400024,0.6499634  c-0.460022,1.2700195-1.1700439,2.4400024-2.0900269,3.4900513c-1.0100098,1.1799927-2.2700195,2.1799927-3.7199707,2.9799805  c-1.1700439,0.6400146-2.4400024,1.1199951-3.7600098,1.4400024c-2.4000244,0.5899658-5.1199951,0.5899658-7.5300293,0  c-1.3099976-0.3200073-2.5799561-0.7999878-3.75-1.4400024c-1.4499512-0.7999878-2.7099609-1.7999878-3.7299805-2.9899902  c-0.9099731-1.0400391-1.6199951-2.210022-2.0800171-3.4800415c-0.1499634-0.3899536-0.5199585-0.6499634-0.9400024-0.6499634H10  C9.7199707,22.0249634,9.4500122,22.1449585,9.2600098,22.3549194z"/><path d="M34.6400146,9.664978c-0.5499878,0-1,0.4399414-1,1v17.8799438  c1.0499878-0.2799683,2.0199585-0.6699829,2.9199829-1.1499634c0.9199829-0.5200195,1.7399902-1.1099854,2.4500122-1.7800293  V10.664978c0-0.5600586-0.4500122-1-1-1H34.6400146z"/><path d="M21.9899902,7.9749756c-0.5499878,0-1,0.4499512-1,1v16.6299438c0.710022,0.6800537,1.5400391,1.2800293,2.460022,1.7900391  c0.8900146,0.4899902,1.8699951,0.8800049,2.9099731,1.1599731V8.9749756c0-0.5500488-0.4500122-1-1-1H21.9899902z"/><path d="M39.960022,14.0249634v10.5599976c0.6699829-0.8200073,1.1599731-1.6799927,1.4899902-2.5900269  c0.4599609-1.2099609,1.5700073-1.9699707,2.8200073-1.9699707h1.0599976v-6c0-0.5499878-0.4500122-1-1-1H40.960022  C40.4099731,13.0249634,39.960022,13.4749756,39.960022,14.0249634z"/><path d="M28.3200073,11.3449707c-0.5599976,0-1,0.4499512-1,1v16.4199829  C28.1799927,28.9449463,29.0800171,29.0249634,30,29.0249634s1.8200073-0.0900269,2.6799927-0.2600098V12.3449707  c0-0.5500488-0.4400024-1-1-1H28.3200073z"/><path d="M14.6699829,15.7149658v4.3099976h1.0599976c1.25,0,2.3600464,0.7600098,2.8099976,1.9299927  c0.3400269,0.9400024,0.8400269,1.8200073,1.5,2.6099854v-8.8499756c0-0.5599976-0.4499512-1-1-1h-3.3699951  C15.1199951,14.7149658,14.6699829,15.1549683,14.6699829,15.7149658z"/></svg>