<svg xmlns="http://www.w3.org/2000/svg" data-name="Layer 1 copy 3" viewBox="0 0 64 80" x="0px" y="0px"><title>lettuce-leaf-top-salad</title><path d="M54,21a7.951,7.951,0,0,0-6.232-7.8,1,1,0,0,1-.78-1L47,12.055A8.015,8.015,0,0,0,39,4a7.924,7.924,0,0,0-5.777,2.477,1.03,1.03,0,0,1-1.446,0A7.987,7.987,0,0,0,18.2,10.231a.993.993,0,0,1-1,.78L17.054,11h-.006a7.995,7.995,0,0,0-3.981,14.958,1,1,0,0,1,.112,1.667A7.992,7.992,0,0,0,18,42h7.414L25,37.083,27,36.917,28.92,60h6.16L37,36.917,39,37.083,38.67,41H46a7.989,7.989,0,0,0,5.95-13.333,1,1,0,0,1,0-1.334A7.989,7.989,0,0,0,54,21Zm-5,5a21.034,21.034,0,0,0-15.832,7.185L33,33.376V56H31V36.588l-2.251-1.25a11.1,11.1,0,0,0-11.267.29l-1.952,1.22-1.06-1.7,1.952-1.22a13.061,13.061,0,0,1,3.144-1.426L16.132,26.5l1.736-.992,3.75,6.562a13.083,13.083,0,0,1,8.1,1.524L31,34.3V26.442l-6.233-5.666A14.489,14.489,0,0,0,15,17V15a16.48,16.48,0,0,1,10,3.375V12h2v8h-.114L31,23.74V10h2v6.942a28.129,28.129,0,0,1,9.553-7.837l.894,1.79a26.108,26.108,0,0,0-9.533,8.145L33,20.32V30.474a23.016,23.016,0,0,1,6.35-4.352L43.132,19.5l1.736.992-2.577,4.511A23.009,23.009,0,0,1,49,24Z"/></svg>