<svg xmlns="http://www.w3.org/2000/svg" xmlns:xlink="http://www.w3.org/1999/xlink" version="1.1" x="0px" y="0px" viewBox="0 0 100 125" enable-background="new 0 0 100 100" xml:space="preserve"><g><g><path d="M81.337,54.344H18.663c-2.155,0-3.902,1.32-3.902,2.95c0,1.629,1.748,2.95,3.902,2.95h62.674    c2.155,0,3.902-1.321,3.902-2.95C85.239,55.664,83.492,54.344,81.337,54.344z"/></g><g><g><path d="M41.371,37.67c0.134,0.438,0.293,0.782,0.41,1.036l0.073,0.159c0.138,0.272,0.216,0.411,0.216,0.411     c0.054,0.088,0.144,0.135,0.241,0.135c0.03,0,0.056-0.005,0.087-0.012c0.122-0.039,0.199-0.159,0.194-0.286     c0-0.007-0.043-0.616-0.01-1.621c0.01-0.442,0.052-0.999,0.144-1.811c0.082-0.724,0.226-1.447,0.394-2.242l0.247-0.963     c0.022-0.049,0.05-0.12,0.104-0.247l0.11-0.274c0.112-0.286,0.218-0.557,0.414-0.838c0.381-0.731,1.008-1.427,1.672-2.131     c0.733-0.735,1.583-1.459,2.484-2.229c0.854-0.728,1.739-1.483,2.629-2.334c0.895-0.88,1.823-1.862,2.525-3.075     c0.335-0.484,0.559-1.043,0.778-1.583l0.14-0.337c0.005-0.016,0.024-0.093,0.025-0.108c0.189-0.738,0.405-1.579,0.36-2.053     l0.02-0.901l-0.011-0.105c-0.035-0.293-0.07-0.582-0.106-0.873c-0.022-0.176-0.042-0.35-0.063-0.521     c-0.049-0.394-0.095-0.777-0.174-1.168l-0.14-0.539c-0.224-0.867-0.433-1.686-0.767-2.419c-0.063-0.145-0.12-0.288-0.174-0.433     c-0.107-0.277-0.217-0.567-0.367-0.831L52.24,8.414c-0.418-0.721-0.849-1.278-1.137-1.632c-0.689-0.865-1.197-1.251-1.217-1.266     c-0.108-0.079-0.25-0.079-0.35,0.007c-0.103,0.081-0.133,0.222-0.076,0.34c0.005,0.004,0.066,0.139,0.168,0.406     c0.071,0.154,0.149,0.369,0.238,0.626c0.054,0.151,0.107,0.313,0.171,0.477c0.162,0.481,0.325,1.077,0.505,1.762     c0.151,0.675,0.321,1.432,0.434,2.285c0.104,0.501,0.129,1.051,0.162,1.63c0.014,0.348,0.036,0.699,0.067,1.022l-0.024,1.476     c-0.004,0.252-0.007,0.503-0.01,0.775c0,0.002-0.002,0.005-0.002,0.007l-0.097,0.638c-0.028,0.364-0.109,0.565-0.194,0.771     c-0.054,0.131-0.106,0.251-0.143,0.393c-0.07,0.13-0.139,0.262-0.205,0.392c-0.132,0.267-0.265,0.516-0.462,0.775     c-0.45,0.684-1.098,1.417-2.036,2.312c-0.434,0.438-0.903,0.865-1.383,1.303c-0.384,0.351-0.774,0.707-1.148,1.068     c-1,0.933-1.824,1.804-2.515,2.673c-0.63,0.827-1.41,1.941-1.828,3.202c-0.442,1.098-0.52,2.386-0.514,3.266     c-0.009,0.904,0.072,1.867,0.226,2.622C41.01,36.563,41.225,37.24,41.371,37.67z"/></g><g><path d="M54.41,27.854c-0.129,0.149-0.261,0.291-0.469,0.481l-1.133,1.117c-0.7,0.684-1.446,1.486-2.287,2.454     c-0.669,0.812-1.43,1.767-2.051,2.799c-0.38,0.596-0.647,1.072-0.852,1.529c-0.264,0.501-0.491,1.051-0.677,1.62     c-0.379,1.047-0.594,2.206-0.624,3.364c-0.009,1.075,0.172,2.131,0.514,3.025c0.126,0.462,0.346,0.855,0.582,1.256     c0.063,0.108,0.124,0.215,0.187,0.318c0.134,0.242,0.271,0.489,0.464,0.682c0.112,0.13,0.22,0.26,0.322,0.382     c0.335,0.4,0.625,0.745,0.957,0.977c0.779,0.625,1.232,0.932,1.248,0.946c0.049,0.029,0.104,0.046,0.16,0.046     c0.003,0,0.012,0,0.012,0c0.156,0,0.283-0.125,0.283-0.282c0-0.073-0.032-0.141-0.078-0.192c-0.086-0.169-0.317-0.635-0.684-1.3     c-0.13-0.195-0.228-0.472-0.331-0.765c-0.085-0.237-0.174-0.484-0.293-0.738c-0.076-0.149-0.11-0.342-0.146-0.543     c-0.022-0.115-0.042-0.229-0.072-0.335c-0.017-0.09-0.039-0.181-0.057-0.271c-0.061-0.237-0.113-0.462-0.108-0.735     c-0.136-1.406,0.196-2.958,0.961-4.493l0.056-0.117c0.175-0.352,0.36-0.716,0.598-1.08c0.22-0.384,0.484-0.76,0.779-1.186     c0.492-0.7,1.08-1.451,1.857-2.376c0.589-0.696,1.196-1.378,1.814-2.078l0.257-0.286c0.358-0.396,0.706-0.799,1.043-1.195     c0.353-0.401,0.784-0.971,1.098-1.461c1.09-1.785,1.631-3.825,1.614-6.067c0.021-0.904-0.082-1.713-0.185-2.385     c-0.093-0.589-0.221-1.168-0.401-1.774c-0.281-0.956-0.537-1.474-0.552-1.497c-0.055-0.114-0.19-0.18-0.308-0.151     c-0.122,0.027-0.217,0.131-0.223,0.261c0,0.002-0.032,0.56-0.133,1.494c-0.111,0.985-0.291,2.302-0.671,3.742     c-0.169,0.711-0.455,1.445-0.78,2.241c-0.403,0.855-0.818,1.544-1.283,2.119c-0.063,0.093-0.146,0.171-0.219,0.247     C54.534,27.723,54.468,27.789,54.41,27.854z"/></g></g><path d="M82.216,61.484H17.783c-0.232,0-0.421,0.189-0.421,0.422c0,8.717,3.396,16.913,9.559,23.077   c6.165,6.165,14.36,9.559,23.079,9.559c8.717,0,16.913-3.394,23.077-9.559c6.165-6.164,9.561-14.36,9.561-23.077   C82.638,61.674,82.448,61.484,82.216,61.484z"/></g></svg>